<?xml version="1.0" encoding="UTF-8"?>
<svg id="Layer_1" xmlns="http://www.w3.org/2000/svg" version="1.1" viewBox="0 0 1080 1080">
  <!-- Generator: Adobe Illustrator 29.4.0, SVG Export Plug-In . SVG Version: 2.1.0 Build 152)  -->
  <defs>
    <style>
      .st0 {
        fill: #2b3990;
      }

      .st1 {
        fill: none;
      }

      .st2 {
        fill: #231f20;
      }

      .st3 {
        fill: #fbb040;
      }
    </style>
  </defs>
  <polygon class="st0" points="559.39 384.63 543.95 399.97 641.75 497.78 561.74 577.82 559.14 580.42 556.54 577.82 461.06 482.34 364.99 577.82 295.04 577.82 426.41 447.27 461.17 412.7 496.04 447.57 558.43 509.95 571.53 496.85 509.2 434.51 474.33 399.64 509.08 365.13 558.68 315.82 822.33 577.82 753.8 577.82 559.39 384.63"/>
  <path class="st3" d="M706.81,283.52c0,26.82-21.74,48.56-48.56,48.56s-48.57-21.74-48.57-48.56,21.74-48.56,48.57-48.56,48.56,21.74,48.56,48.56"/>
  <g>
    <polygon class="st1" points="789.23 687.15 784.24 700.24 794.21 700.24 789.23 687.15"/>
    <path class="st1" d="M363.04,667.79h-12.68v21.89h12.68c.51,0,.93-.09,1.35-.09,5.49-.68,9.63-5.32,9.63-10.9,0-6-4.9-10.9-10.99-10.9Z"/>
    <path class="st1" d="M356.54,755.24c-1.71-.63-3.62-.95-5.74-.95s-4.03.32-5.74.95c-1.71.63-3.07,1.56-4.08,2.79-1.01,1.23-1.51,2.74-1.51,4.52s.5,3.3,1.51,4.52c1.01,1.23,2.36,2.16,4.08,2.79,1.71.63,3.62.95,5.74.95s4.03-.32,5.74-.95c1.71-.63,3.07-1.56,4.08-2.79,1.01-1.23,1.51-2.74,1.51-4.52s-.5-3.29-1.51-4.52c-1.01-1.23-2.36-2.16-4.08-2.79Z"/>
    <path class="st1" d="M483.49,762.07c1.14-.32,1.97-.78,2.49-1.38.52-.6.78-1.3.78-2.13s-.26-1.55-.79-2.17c-.52-.62-1.36-1.1-2.51-1.43-1.15-.34-2.67-.51-4.55-.51h-7.44v8.1h7.51c1.86,0,3.37-.16,4.51-.48Z"/>
    <path class="st1" d="M241.98,755.43c-1.83-.65-4.11-.97-6.84-.97h-6.75v16.2h6.28c2.89,0,5.28-.33,7.18-.99,1.9-.66,3.31-1.6,4.25-2.81.93-1.22,1.4-2.66,1.4-4.34s-.46-3.1-1.38-4.31c-.92-1.2-2.3-2.13-4.13-2.78Z"/>
    <path class="st1" d="M448.18,755.02c-1.15-.37-2.67-.56-4.57-.56h-7.44v8.66h7.51c1.88,0,3.38-.19,4.52-.57s1.96-.9,2.48-1.56c.52-.65.78-1.39.78-2.22s-.26-1.57-.78-2.22c-.52-.65-1.35-1.16-2.5-1.54Z"/>
    <polygon class="st1" points="569.4 755.51 563.8 764.81 575.26 764.81 569.67 755.51 569.4 755.51"/>
    <path class="st1" d="M394.37,762.07c1.14-.32,1.97-.78,2.49-1.38.52-.6.78-1.3.78-2.13s-.26-1.55-.79-2.17c-.52-.62-1.36-1.1-2.51-1.43-1.15-.34-2.67-.51-4.55-.51h-7.44v8.1h7.51c1.86,0,3.37-.16,4.51-.48Z"/>
    <polygon class="st1" points="166.04 700.24 176.02 700.24 171.03 687.15 166.04 700.24"/>
    <path class="st1" d="M883.61,755.43c-1.83-.65-4.11-.97-6.84-.97h-6.75v16.2h6.28c2.89,0,5.28-.33,7.18-.99,1.9-.66,3.32-1.6,4.25-2.81.93-1.22,1.4-2.66,1.4-4.34s-.46-3.1-1.38-4.31c-.92-1.2-2.3-2.13-4.13-2.78Z"/>
    <polygon class="st2" points="303.8 716.3 303.8 667.79 321.03 667.79 321.03 657.06 303.8 657.06 293.06 657.06 275.91 657.06 275.91 667.79 293.06 667.79 293.06 716.3 303.8 716.3"/>
    <polygon class="st2" points="246.58 690.78 222.92 667.54 212.19 656.98 212.19 716.3 222.92 716.3 222.92 682.58 246.58 705.82 257.31 716.38 257.31 657.06 246.58 657.06 246.58 690.78"/>
    <path class="st2" d="M384.76,716.3l-13.35-17.58c8.11-3.38,13.35-11.24,13.35-20.03,0-11.91-9.72-21.63-21.72-21.63h-23.41v59.24h10.73v-15.89h8.87l12.08,15.8v.08h13.44ZM364.39,689.6c-.42,0-.85.09-1.35.09h-12.68v-21.89h12.68c6.08,0,10.99,4.9,10.99,10.9,0,5.58-4.14,10.22-9.63,10.9Z"/>
    <rect class="st2" x="403.35" y="657.06" width="10.73" height="59.24"/>
    <path class="st2" d="M187.51,700.24l-10.73-28.22-5.75-15.04-5.75,15.04-16.82,44.28h11.49l2.03-5.32h18.17l1.94,5.32h11.49l-2.03-5.32-4.06-10.73ZM166.04,700.24l4.99-13.1,4.99,13.1h-9.97Z"/>
    <polygon class="st2" points="477.89 716.3 455.32 686.64 477.89 657.06 464.37 657.06 448.56 677.85 443.41 684.61 443.41 657.06 432.68 657.06 432.68 716.38 432.76 716.3 443.41 716.3 443.41 702.36 448.56 695.51 464.37 716.21 464.37 716.3 477.89 716.3"/>
    <path class="st2" d="M531.38,698.81c0-9.63-7.86-17.49-17.49-17.49-3.72,0-6.76-3.04-6.76-6.76s3.04-6.76,6.76-6.76,6.76,3.04,6.76,6.76v.08h10.73v-.08c0-9.63-7.86-17.49-17.49-17.49s-17.49,7.86-17.49,17.49,7.86,17.49,17.49,17.49c3.72,0,6.76,3.04,6.76,6.76s-3.04,6.76-6.76,6.76-6.76-3.04-6.76-6.76v-.08h-10.73v.08c0,9.63,7.86,17.49,17.49,17.49s17.49-7.86,17.49-17.49Z"/>
    <polygon class="st2" points="560.63 692.05 584.29 692.05 584.29 716.3 595.02 716.3 595.02 657.06 584.29 657.06 584.29 681.31 560.63 681.31 560.63 657.06 549.89 657.06 549.89 716.3 560.63 716.3 560.63 692.05"/>
    <path class="st2" d="M666.94,681.31c-3.72,0-6.76-3.04-6.76-6.76s3.04-6.76,6.76-6.76,6.76,3.04,6.76,6.76v.08h10.73v-.08c0-9.63-7.86-17.49-17.49-17.49s-17.49,7.86-17.49,17.49,7.86,17.49,17.49,17.49c3.72,0,6.76,3.04,6.76,6.76s-3.04,6.76-6.76,6.76-6.76-3.04-6.76-6.76v-.08h-10.73v.08c0,9.63,7.86,17.49,17.49,17.49s17.49-7.86,17.49-17.49-7.86-17.49-17.49-17.49Z"/>
    <polygon class="st2" points="737.34 716.3 748.07 716.3 748.07 657.06 737.34 657.06 737.34 681.31 713.68 681.31 713.68 657.06 702.94 657.06 702.94 716.3 713.68 716.3 713.68 692.05 737.34 692.05 737.34 716.3"/>
    <path class="st2" d="M798.35,710.98l1.94,5.32h11.49l-2.03-5.32-4.06-10.73-10.73-28.22-5.75-15.04-5.75,15.04-16.82,44.28h11.49l2.03-5.32h18.17ZM789.23,687.15l4.99,13.1h-9.97l4.99-13.1Z"/>
    <polygon class="st2" points="875.6 716.3 853.03 686.64 875.6 657.06 862.08 657.06 846.27 677.85 841.12 684.61 841.12 657.06 830.39 657.06 830.39 716.38 830.47 716.3 841.12 716.3 841.12 702.36 846.27 695.51 862.08 716.21 862.08 716.3 875.6 716.3"/>
    <polygon class="st2" points="911.26 657.06 894.11 657.06 894.11 667.79 911.26 667.79 911.26 716.3 921.99 716.3 921.99 667.79 939.23 667.79 939.23 657.06 921.99 657.06 911.26 657.06"/>
    <rect class="st2" x="957.83" y="657.06" width="10.73" height="59.24"/>
    <path class="st2" d="M244.11,753.47c-2.41-.82-5.31-1.23-8.7-1.23h-11.26v20.63h10.78c3.55,0,6.56-.41,9.04-1.25,2.48-.83,4.37-2.02,5.66-3.57,1.3-1.55,1.95-3.4,1.95-5.55s-.64-3.97-1.93-5.51c-1.29-1.53-3.13-2.71-5.54-3.54ZM246.09,766.86c-.93,1.22-2.35,2.15-4.25,2.81-1.9.66-4.29.99-7.18.99h-6.28v-16.2h6.75c2.73,0,5.01.32,6.84.97,1.83.65,3.21,1.58,4.13,2.78.92,1.21,1.38,2.64,1.38,4.31s-.47,3.13-1.4,4.34Z"/>
    <polygon class="st2" points="267.72 763.65 283.48 763.65 283.48 761.43 267.72 761.43 267.72 754.46 284.57 754.46 284.57 752.24 263.48 752.24 263.48 772.87 284.84 772.87 284.84 770.66 267.72 770.66 267.72 763.65"/>
    <path class="st2" d="M305.33,755.24c1.71-.63,3.62-.95,5.74-.95,1.16,0,2.27.09,3.34.28,1.07.19,2.04.47,2.92.84.88.37,1.63.83,2.25,1.38.62.54,1.05,1.18,1.3,1.89h4.23c-.32-1.06-.9-2.01-1.74-2.84-.84-.83-1.89-1.54-3.14-2.12s-2.65-1.02-4.2-1.33c-1.55-.3-3.21-.45-4.97-.45-2.98,0-5.63.43-7.95,1.29-2.32.86-4.14,2.08-5.48,3.67-1.33,1.58-1.99,3.47-1.99,5.64s.66,4.06,1.99,5.64c1.33,1.59,3.16,2.81,5.48,3.67,2.32.86,4.97,1.29,7.95,1.29,1.76,0,3.42-.15,4.97-.45,1.55-.3,2.95-.74,4.2-1.33,1.25-.58,2.3-1.29,3.14-2.12.84-.83,1.42-1.78,1.74-2.83h-4.23c-.25.71-.69,1.34-1.3,1.89-.62.55-1.37,1.01-2.25,1.38-.88.37-1.86.65-2.92.84-1.07.19-2.18.28-3.34.28-2.12,0-4.03-.32-5.74-.95-1.71-.63-3.07-1.56-4.08-2.79-1.01-1.23-1.51-2.74-1.51-4.52s.5-3.3,1.51-4.52c1.01-1.23,2.36-2.16,4.08-2.79Z"/>
    <path class="st2" d="M358.75,753.25c-2.32-.86-4.97-1.29-7.95-1.29s-5.63.43-7.95,1.29c-2.32.86-4.15,2.08-5.48,3.67-1.33,1.58-2,3.47-2,5.64s.67,4.06,2,5.64c1.33,1.59,3.16,2.81,5.48,3.67,2.32.86,4.97,1.29,7.95,1.29s5.63-.43,7.95-1.29c2.32-.86,4.15-2.08,5.48-3.67,1.33-1.58,2-3.47,2-5.64s-.67-4.06-2-5.64c-1.33-1.59-3.16-2.81-5.48-3.67ZM360.62,767.08c-1.01,1.23-2.36,2.16-4.08,2.79-1.71.63-3.62.95-5.74.95s-4.03-.32-5.74-.95c-1.71-.63-3.07-1.56-4.08-2.79-1.01-1.23-1.51-2.74-1.51-4.52s.5-3.29,1.51-4.52c1.01-1.23,2.36-2.16,4.08-2.79,1.71-.63,3.62-.95,5.74-.95s4.03.32,5.74.95c1.71.63,3.07,1.56,4.08,2.79,1.01,1.23,1.51,2.74,1.51,4.52s-.5,3.3-1.51,4.52Z"/>
    <path class="st2" d="M396.66,764.01c1.74-.53,3.03-1.27,3.87-2.21s1.26-2.02,1.26-3.23-.42-2.3-1.26-3.25c-.84-.95-2.14-1.7-3.89-2.25-1.75-.55-3.99-.82-6.72-.82h-11.8v20.63h4.23v-8.06h7.64c.31,0,.58-.02.88-.02l7.38,8.08h4.91l-7.89-8.51c.5-.1.96-.22,1.39-.35ZM382.35,754.46h7.44c1.89,0,3.41.17,4.55.51,1.15.34,1.98.82,2.51,1.43.52.62.79,1.34.79,2.17s-.26,1.54-.78,2.13c-.52.59-1.35,1.05-2.49,1.38-1.14.32-2.65.48-4.51.48h-7.51v-8.1Z"/>
    <path class="st2" d="M450.47,753.11c-1.75-.58-3.99-.87-6.73-.87h-11.8v20.63h4.23v-7.54h7.64c2.72,0,4.95-.29,6.69-.88,1.74-.59,3.03-1.38,3.86-2.37.84-.99,1.25-2.1,1.25-3.31s-.42-2.32-1.26-3.31c-.84-.99-2.13-1.77-3.88-2.35ZM450.68,760.99c-.52.66-1.35,1.17-2.48,1.56s-2.64.57-4.52.57h-7.51v-8.66h7.44c1.9,0,3.42.19,4.57.56,1.15.37,1.98.89,2.5,1.54.52.65.78,1.39.78,2.22s-.26,1.57-.78,2.22Z"/>
    <path class="st2" d="M485.78,764.01c1.74-.53,3.03-1.27,3.87-2.21s1.26-2.02,1.26-3.23-.42-2.3-1.26-3.25c-.84-.95-2.14-1.7-3.89-2.25-1.75-.55-3.99-.82-6.72-.82h-11.8v20.63h4.23v-8.06h7.64c.31,0,.58-.02.88-.02l7.38,8.08h4.91l-7.89-8.51c.5-.1.96-.22,1.39-.35ZM471.47,754.46h7.44c1.89,0,3.41.17,4.55.51,1.15.34,1.98.82,2.51,1.43.52.62.79,1.34.79,2.17s-.26,1.54-.78,2.13c-.52.59-1.35,1.05-2.49,1.38-1.14.32-2.65.48-4.51.48h-7.51v-8.1Z"/>
    <rect class="st2" x="502.75" y="752.24" width="4.23" height="20.63"/>
    <polygon class="st2" points="532.46 769.61 532.05 769.61 521.68 752.24 517.24 752.24 530.07 772.87 534.44 772.87 547.26 752.24 542.83 752.24 532.46 769.61"/>
    <path class="st2" d="M567.35,752.24l-12.83,20.63h4.43l3.51-5.84h14.13l3.51,5.84h4.44l-12.83-20.63h-4.37ZM563.8,764.81l5.6-9.31h.27l5.59,9.31h-11.46Z"/>
    <polygon class="st2" points="592.89 754.46 603.88 754.46 603.88 772.87 608.11 772.87 608.11 754.46 619.09 754.46 619.09 752.24 592.89 752.24 592.89 754.46"/>
    <polygon class="st2" points="634.68 763.65 650.44 763.65 650.44 761.43 634.68 761.43 634.68 754.46 651.53 754.46 651.53 752.24 630.45 752.24 630.45 772.87 651.8 772.87 651.8 770.66 634.68 770.66 634.68 763.65"/>
    <polygon class="st2" points="686.52 752.24 682.29 752.24 682.29 772.87 702.76 772.87 702.76 770.66 686.52 770.66 686.52 752.24"/>
    <rect class="st2" x="714.11" y="752.24" width="4.23" height="20.63"/>
    <polygon class="st2" points="748.93 769.37 748.53 769.37 736.65 752.24 731.6 752.24 731.6 772.87 735.56 772.87 735.56 757.2 735.9 757.2 746.82 772.87 750.64 772.87 761.56 757.2 761.9 757.2 761.9 772.87 765.86 772.87 765.86 752.24 760.81 752.24 748.93 769.37"/>
    <rect class="st2" x="779.12" y="752.24" width="4.23" height="20.63"/>
    <polygon class="st2" points="794.7 754.46 805.69 754.46 805.69 772.87 809.92 772.87 809.92 754.46 820.9 754.46 820.9 752.24 794.7 752.24 794.7 754.46"/>
    <polygon class="st2" points="836.48 763.65 852.25 763.65 852.25 761.43 836.48 761.43 836.48 754.46 853.34 754.46 853.34 752.24 832.25 752.24 832.25 772.87 853.61 772.87 853.61 770.66 836.48 770.66 836.48 763.65"/>
    <path class="st2" d="M885.74,753.47c-2.41-.82-5.31-1.23-8.7-1.23h-11.26v20.63h10.78c3.55,0,6.56-.41,9.04-1.25,2.48-.83,4.37-2.02,5.66-3.57,1.3-1.55,1.94-3.4,1.94-5.55s-.64-3.97-1.93-5.51c-1.29-1.53-3.13-2.71-5.54-3.54ZM887.72,766.86c-.93,1.22-2.35,2.15-4.25,2.81-1.9.66-4.29.99-7.18.99h-6.28v-16.2h6.75c2.73,0,5.01.32,6.84.97,1.83.65,3.21,1.58,4.13,2.78.92,1.21,1.38,2.64,1.38,4.31s-.47,3.13-1.4,4.34Z"/>
  </g>
</svg>